<svg xmlns="http://www.w3.org/2000/svg" width="180" height="180" viewBox="-10 -10 200 200">
  <g transform="rotate(-3 90 90)">
    <polygon points="166 166 14 166 14 14 138 14 166 42 166 166" fill="#8abfff" />
    <rect x="14" y="14" width="12" height="12" fill="#215cca" />
    <rect x="28" y="14" width="12" height="12" fill="#215cca" />
    <rect x="42" y="14" width="12" height="12" fill="#215cca" />
    <rect x="56" y="14" width="12" height="12" fill="#215cca" />
    <rect x="70" y="14" width="12" height="12" fill="#215cca" />
    <rect x="84" y="14" width="12" height="12" fill="#215cca" />
    <rect x="98" y="14" width="12" height="12" fill="#215cca" />
    <rect x="112" y="14" width="12" height="12" fill="#215cca" />
    <rect x="126" y="14" width="12" height="12" fill="#215cca" />
    <rect x="14" y="28" width="12" height="12" fill="#215cca" />
    <rect x="28" y="28" width="12" height="12" fill="#215cca" />
    <rect x="42" y="28" width="12" height="12" fill="#215cca" />
    <rect x="56" y="28" width="12" height="12" fill="#215cca" />
    <rect x="70" y="28" width="12" height="12" fill="#215cca" />
    <rect x="84" y="28" width="12" height="12" fill="#215cca" />
    <rect x="98" y="28" width="12" height="12" fill="#215cca" />
    <rect x="112" y="28" width="12" height="12" fill="#215cca" />
    <rect x="126" y="28" width="12" height="12" fill="#215cca" />
    <rect x="14" y="42" width="12" height="12" fill="#215cca" />
    <rect x="28" y="42" width="12" height="12" fill="#215cca" />
    <rect x="42" y="42" width="12" height="12" fill="#215cca" />
    <rect x="56" y="42" width="12" height="12" fill="#215cca" />
    <rect x="70" y="42" width="12" height="12" fill="#215cca" />
    <rect x="84" y="42" width="12" height="12" fill="#215cca" />
    <rect x="98" y="42" width="12" height="12" fill="#215cca" />
    <rect x="112" y="42" width="12" height="12" fill="#215cca" />
    <rect x="126" y="42" width="12" height="12" fill="#215cca" />
    <rect x="140" y="42" width="12" height="12" fill="#215cca" />
    <rect x="154" y="42" width="12" height="12" fill="#215cca" />
    <rect x="14" y="56" width="12" height="12" fill="#215cca" />
    <rect x="28" y="56" width="12" height="12" fill="#215cca" />
    <rect x="42" y="56" width="12" height="12" fill="#215cca" />
    <rect x="56" y="56" width="12" height="12" fill="#215cca" />
    <rect x="70" y="56" width="12" height="12" fill="#215cca" />
    <rect x="84" y="56" width="12" height="12" fill="#215cca" />
    <rect x="98" y="56" width="12" height="12" fill="#215cca" />
    <rect x="112" y="56" width="12" height="12" fill="#215cca" />
    <rect x="126" y="56" width="12" height="12" fill="#215cca" />
    <rect x="140" y="56" width="12" height="12" fill="#215cca" />
    <rect x="154" y="56" width="12" height="12" fill="#215cca" />
    <rect x="14" y="70" width="12" height="12" fill="#215cca" />
    <rect x="28" y="70" width="12" height="12" fill="#215cca" />
    <rect x="42" y="70" width="12" height="12" fill="#215cca" />
    <rect x="56" y="70" width="12" height="12" fill="#215cca" />
    <rect x="70" y="70" width="12" height="12" fill="#215cca" />
    <rect x="84" y="70" width="12" height="12" fill="#215cca" />
    <rect x="98" y="70" width="12" height="12" fill="#215cca" />
    <rect x="112" y="70" width="12" height="12" fill="#215cca" />
    <rect x="126" y="70" width="12" height="12" fill="#215cca" />
    <rect x="140" y="70" width="12" height="12" fill="#215cca" />
    <rect x="154" y="70" width="12" height="12" fill="#215cca" />
    <rect x="14" y="84" width="12" height="12" fill="#215cca" />
    <rect x="28" y="84" width="12" height="12" fill="#215cca" />
    <rect x="42" y="84" width="12" height="12" fill="#215cca" />
    <rect x="56" y="84" width="12" height="12" fill="#215cca" />
    <rect x="70" y="84" width="12" height="12" fill="#215cca" />
    <rect x="84" y="84" width="12" height="12" fill="#215cca" />
    <rect x="98" y="84" width="12" height="12" fill="#215cca" />
    <rect x="112" y="84" width="12" height="12" fill="#215cca" />
    <rect x="126" y="84" width="12" height="12" fill="#215cca" />
    <rect x="140" y="84" width="12" height="12" fill="#215cca" />
    <rect x="154" y="84" width="12" height="12" fill="#215cca" />
    <rect x="14" y="98" width="12" height="12" fill="#215cca" />
    <rect x="28" y="98" width="12" height="12" fill="#215cca" />
    <rect x="42" y="98" width="12" height="12" fill="#215cca" />
    <rect x="56" y="98" width="12" height="12" fill="#215cca" />
    <rect x="70" y="98" width="12" height="12" fill="#215cca" />
    <rect x="84" y="98" width="12" height="12" fill="#215cca" />
    <rect x="98" y="98" width="12" height="12" fill="#215cca" />
    <rect x="112" y="98" width="12" height="12" fill="#215cca" />
    <rect x="126" y="98" width="12" height="12" fill="#215cca" />
    <rect x="140" y="98" width="12" height="12" fill="#215cca" />
    <rect x="154" y="98" width="12" height="12" fill="#215cca" />
    <rect x="14" y="112" width="12" height="12" fill="#215cca" />
    <rect x="28" y="112" width="12" height="12" fill="#215cca" />
    <rect x="42" y="112" width="12" height="12" fill="#215cca" />
    <rect x="56" y="112" width="12" height="12" fill="#215cca" />
    <rect x="70" y="112" width="12" height="12" fill="#215cca" />
    <rect x="84" y="112" width="12" height="12" fill="#215cca" />
    <rect x="98" y="112" width="12" height="12" fill="#215cca" />
    <rect x="112" y="112" width="12" height="12" fill="#215cca" />
    <rect x="126" y="112" width="12" height="12" fill="#215cca" />
    <rect x="140" y="112" width="12" height="12" fill="#215cca" />
    <rect x="154" y="112" width="12" height="12" fill="#215cca" />
    <rect x="14" y="126" width="12" height="12" fill="#215cca" />
    <rect x="28" y="126" width="12" height="12" fill="#215cca" />
    <rect x="42" y="126" width="12" height="12" fill="#215cca" />
    <rect x="56" y="126" width="12" height="12" fill="#215cca" />
    <rect x="70" y="126" width="12" height="12" fill="#215cca" />
    <rect x="84" y="126" width="12" height="12" fill="#215cca" />
    <rect x="98" y="126" width="12" height="12" fill="#215cca" />
    <rect x="112" y="126" width="12" height="12" fill="#215cca" />
    <rect x="126" y="126" width="12" height="12" fill="#215cca" />
    <rect x="140" y="126" width="12" height="12" fill="#215cca" />
    <rect x="154" y="126" width="12" height="12" fill="#215cca" />
    <rect x="14" y="140" width="12" height="12" fill="#215cca" />
    <rect x="28" y="140" width="12" height="12" fill="#215cca" />
    <rect x="42" y="140" width="12" height="12" fill="#215cca" />
    <rect x="56" y="140" width="12" height="12" fill="#215cca" />
    <rect x="70" y="140" width="12" height="12" fill="#215cca" />
    <rect x="84" y="140" width="12" height="12" fill="#215cca" />
    <rect x="98" y="140" width="12" height="12" fill="#215cca" />
    <rect x="112" y="140" width="12" height="12" fill="#215cca" />
    <rect x="126" y="140" width="12" height="12" fill="#215cca" />
    <rect x="140" y="140" width="12" height="12" fill="#215cca" />
    <rect x="154" y="140" width="12" height="12" fill="#215cca" />
    <rect x="14" y="154" width="12" height="12" fill="#215cca" />
    <rect x="28" y="154" width="12" height="12" fill="#215cca" />
    <rect x="42" y="154" width="12" height="12" fill="#215cca" />
    <rect x="56" y="154" width="12" height="12" fill="#215cca" />
    <rect x="70" y="154" width="12" height="12" fill="#215cca" />
    <rect x="84" y="154" width="12" height="12" fill="#215cca" />
    <rect x="98" y="154" width="12" height="12" fill="#215cca" />
    <rect x="112" y="154" width="12" height="12" fill="#215cca" />
    <rect x="126" y="154" width="12" height="12" fill="#215cca" />
    <rect x="140" y="154" width="12" height="12" fill="#215cca" />
    <rect x="154" y="154" width="12" height="12" fill="#215cca" />
    <polygon points="90 40 47 65 47 115 90 140 133 115 133 65 90 40" fill="#fff" stroke="#215cca" stroke-miterlimit="10"
      stroke-width="10" />
  </g>
</svg>